<svg width="1000" height="1000" viewBox="0 0 1000 1000" xmlns="http://www.w3.org/2000/svg"><defs/><path fill="#ffffff" transform="matrix(0.6124984486706182 0 0 0.6124984486706182 72.32911552080952 13.872555537591865)" d="M 831.28994723157 699.92866756653 C 802.08994723157 744.22866756653 761.18994723157 779.02866756653 712.88994723157 800.72866756653 L 707.18994723157 803.32866756653 L 701.48994723157 800.72866756653 C 653.28994723157 779.02866756653 612.28994723157 744.22866756653 583.08994723157 699.92866756653 C 553.08994723157 654.52866756653 537.28994723157 601.62866756653 537.28994723157 547.02866756653 C 537.28994723157 539.62866756653 537.58994723157 532.22866756653 538.18994723157 524.82866756653 C 534.68994723157 536.92866756653 533.78994723157 550.62866756653 533.78994723157 567.22866756653 C 533.78994723157 621.82866756653 549.58994723157 674.72866756653 579.58994723157 720.12866756653 C 608.78994723157 764.42866756653 649.68994723157 799.22866756653 697.98994723157 820.92866756653 L 703.68994723157 823.52866756653 L 709.38994723157 820.92866756653 C 757.58994723157 799.22866756653 798.58994723157 764.42866756653 827.78994723157 720.12866756653 C 850.88994723157 685.22866756653 859.58994723157 658.12866756653 862.68994723157 635.32866756653 C 855.18994723157 657.92866756653 844.58994723157 679.62866756653 831.28994723157 699.92866756653 Z"/><path fill="#ffffff" transform="matrix(0.6124984486706182 0 0 0.6124984486706182 72.32911552080952 13.872555537591865)" d="M 555.68994723157 496.62866756653 C 552.58994723157 512.92866756653 550.88994723157 529.72866756653 550.88994723157 546.92866756653 C 550.88994723157 562.22866756653 552.18994723157 577.22866756653 554.68994723157 591.72866756653 L 701.58994723157 444.82866756653 C 646.58994723157 446.02866756653 596.08994723157 465.12866756653 555.68994723157 496.62866756653 Z"/><path fill="#ffffff" transform="matrix(0.6124984486706182 0 0 0.6124984486706182 72.32911552080952 13.872555537591865)" d="M 857.88994723157 496.62866756653 C 827.58994723157 473.02866756653 791.68994723157 456.42866756653 752.48994723157 449.02866756653 L 783.18994723157 418.32866756653 L 794.48994723157 429.62866756653 L 801.18994723157 404.72866756653 L 807.88994723157 379.82866756653 L 782.98994723157 386.52866756653 L 758.08994723157 393.22866756653 L 769.38994723157 404.52866756653 L 728.28994723157 445.62866756653 C 728.18994723157 445.62866756653 728.08994723157 445.62866756653 727.88994723157 445.62866756653 L 559.48994723157 614.32866756653 C 563.38994723157 629.22866756653 568.58994723157 643.72866756653 574.98994723157 657.42866756653 L 709.88994723157 522.52866756653 L 698.58994723157 511.22866756653 L 723.48994723157 504.52866756653 L 748.38994723157 497.82866756653 L 741.68994723157 522.72866756653 L 734.98994723157 547.62866756653 L 723.68994723157 536.32866756653 L 584.28994723157 675.62866756653 C 591.18994723157 688.02866756653 599.08994723157 699.72866756653 607.78994723157 710.72866756653 L 691.98994723157 626.52866756653 L 680.68994723157 615.22866756653 L 705.58994723157 608.52866756653 L 730.48994723157 601.82866756653 L 723.78994723157 626.72866756653 L 717.08994723157 651.62866756653 L 705.78994723157 640.32866756653 L 620.48994723157 725.62866756653 C 629.88994723157 735.82866756653 639.98994723157 745.32866756653 650.88994723157 753.92866756653 L 775.88994723157 628.92866756653 L 764.58994723157 617.62866756653 L 789.48994723157 610.92866756653 L 814.38994723157 604.22866756653 L 807.68994723157 629.12866756653 L 800.98994723157 654.02866756653 L 789.68994723157 642.72866756653 L 666.58994723157 765.42866756653 C 679.28994723157 774.02866756653 692.68994723157 781.52866756653 706.78994723157 787.92866756653 C 798.68994723157 746.62866756653 862.68994723157 654.22866756653 862.68994723157 546.92866756653 C 862.68994723157 529.72866756653 861.08994723157 512.92866756653 857.88994723157 496.62866756653 Z"/><path id="text" fill="#ffffff" transform="matrix(1.5518376112785341 0 0 1.5518376112785341 -10.911358204302193 510.9047836779937)" d="M 147.70647321429 68.75423660714 L 147.70647321429 79.44173660714 L 116.01897321429 79.44173660714 L 116.01897321429 96.31673660714 L 146.11272321429 96.31673660714 L 146.11272321429 107.42611160714 L 115.87834821429 107.42611160714 L 115.87834821429 135.78548660714 L 103.69084821429 135.78548660714 L 103.69084821429 68.75423660714 L 147.70647321429 68.75423660714 Z M 169.50334821429 68.75423660714 L 169.50334821429 78.59798660714 L 157.08147321429 78.59798660714 L 157.08147321429 68.75423660714 L 169.50334821429 68.75423660714 Z M 169.50334821429 86.56673660714 L 169.50334821429 135.78548660714 L 157.08147321429 135.78548660714 L 157.08147321429 86.56673660714 L 169.50334821429 86.56673660714 Z M 193.64397321429 68.75423660714 L 193.64397321429 135.78548660714 L 181.22209821429 135.78548660714 L 181.22209821429 68.75423660714 L 193.64397321429 68.75423660714 Z M 205.36272321429 135.78548660714 L 205.36272321429 86.56673660714 L 214.97209821429 86.56673660714 L 216.42522321429 93.69173660714 C 220.83147321429 88.94173660714 226.12834821429 86.56673660714 232.31584821429 86.56673660714 C 238.50334821429 86.56673660714 242.73772321429 88.81673660714 245.01897321429 93.31673660714 C 250.05022321429 88.81673660714 255.31584821429 86.56673660714 260.81584821429 86.56673660714 C 272.12834821429 86.56673660714 277.78459821429 92.80111160714 277.78459821429 105.26986160714 L 277.78459821429 135.78548660714 L 265.36272321429 135.78548660714 L 265.36272321429 104.80111160714 C 265.36272321429 99.33236160714 262.89397321429 96.59798660714 257.95647321429 96.59798660714 C 254.26897321429 96.59798660714 250.72209821429 98.25423660714 247.31584821429 101.56673660714 L 247.31584821429 135.78548660714 L 234.89397321429 135.78548660714 L 234.89397321429 104.94173660714 C 234.89397321429 99.37923660714 232.61272321429 96.59798660714 228.05022321429 96.59798660714 C 224.42522321429 96.59798660714 221.00334821429 98.25423660714 217.78459821429 101.56673660714 L 217.78459821429 135.78548660714 L 205.36272321429 135.78548660714 Z M 301.92522321429 68.75423660714 L 301.92522321429 135.78548660714 L 289.50334821429 135.78548660714 L 289.50334821429 68.75423660714 L 301.92522321429 68.75423660714 Z M 326.06584821429 68.75423660714 L 326.06584821429 78.59798660714 L 313.64397321429 78.59798660714 L 313.64397321429 68.75423660714 L 326.06584821429 68.75423660714 Z M 326.06584821429 86.56673660714 L 326.06584821429 135.78548660714 L 313.64397321429 135.78548660714 L 313.64397321429 86.56673660714 L 326.06584821429 86.56673660714 Z M 350.20647321429 124.39486160714 C 353.05022321429 125.30111160714 356.34709821429 125.75423660714 360.09709821429 125.75423660714 C 367.59709821429 125.75423660714 371.34709821429 120.45736160714 371.34709821429 109.86361160714 C 371.34709821429 101.20736160714 368.11272321429 96.87923660714 361.64397321429 96.87923660714 C 357.45647321429 96.87923660714 353.64397321429 97.72298660714 350.20647321429 99.41048660714 L 350.20647321429 124.39486160714 Z M 337.78459821429 68.75423660714 L 350.20647321429 68.75423660714 L 350.20647321429 90.31673660714 C 353.92522321429 87.81673660714 358.06584821429 86.56673660714 362.62834821429 86.56673660714 C 376.62834821429 86.56673660714 383.62834821429 94.44173660714 383.62834821429 110.19173660714 C 383.62834821429 127.25423660714 375.61272321429 135.78548660714 359.58147321429 135.78548660714 C 352.83147321429 135.78548660714 345.56584821429 135.11361160714 337.78459821429 133.76986160714 L 337.78459821429 68.75423660714 Z M 393.00334821429 135.78548660714 L 393.00334821429 86.56673660714 L 402.61272321429 86.56673660714 L 404.15959821429 92.84798660714 C 408.47209821429 88.66048660714 413.03459821429 86.56673660714 417.84709821429 86.56673660714 L 417.84709821429 96.59798660714 C 413.22209821429 96.59798660714 409.08147321429 98.51986160714 405.42522321429 102.36361160714 L 405.42522321429 135.78548660714 L 393.00334821429 135.78548660714 Z M 422.53459821429 120.45736160714 C 422.53459821429 110.67611160714 429.65959821429 105.78548660714 443.90959821429 105.78548660714 C 447.25334821429 105.78548660714 450.59709821429 106.09798660714 453.94084821429 106.72298660714 L 453.94084821429 103.01986160714 C 453.94084821429 98.61361160714 450.76897321429 96.41048660714 444.42522321429 96.41048660714 C 439.05022321429 96.41048660714 433.08147321429 97.19173660714 426.51897321429 98.75423660714 L 426.51897321429 88.91048660714 C 433.08147321429 87.34798660714 439.05022321429 86.56673660714 444.42522321429 86.56673660714 C 459.05022321429 86.56673660714 466.36272321429 91.97298660714 466.36272321429 102.78548660714 L 466.36272321429 135.78548660714 L 459.14397321429 135.78548660714 L 454.73772321429 131.37923660714 C 450.45647321429 134.31673660714 445.73772321429 135.78548660714 440.58147321429 135.78548660714 C 428.55022321429 135.78548660714 422.53459821429 130.67611160714 422.53459821429 120.45736160714 Z M 443.90959821429 114.22298660714 C 437.94084821429 114.22298660714 434.95647321429 116.25423660714 434.95647321429 120.31673660714 C 434.95647321429 124.69173660714 437.45647321429 126.87923660714 442.45647321429 126.87923660714 C 446.58147321429 126.87923660714 450.40959821429 125.59798660714 453.94084821429 123.03548660714 L 453.94084821429 115.16048660714 C 450.81584821429 114.53548660714 447.47209821429 114.22298660714 443.90959821429 114.22298660714 Z M 478.08147321429 135.78548660714 L 478.08147321429 86.56673660714 L 487.69084821429 86.56673660714 L 489.23772321429 92.84798660714 C 493.55022321429 88.66048660714 498.11272321429 86.56673660714 502.92522321429 86.56673660714 L 502.92522321429 96.59798660714 C 498.30022321429 96.59798660714 494.15959821429 98.51986160714 490.50334821429 102.36361160714 L 490.50334821429 135.78548660714 L 478.08147321429 135.78548660714 Z M 504.09709821429 86.56673660714 L 517.26897321429 86.56673660714 L 529.69084821429 122.00423660714 L 541.83147321429 86.56673660714 L 554.76897321429 86.56673660714 L 534.33147321429 137.23861160714 C 530.70647321429 146.17611160714 524.90959821429 152.53548660714 516.94084821429 156.31673660714 L 510.94084821429 147.83236160714 C 516.44084821429 145.42611160714 520.44084821429 141.50423660714 522.94084821429 136.06673660714 L 504.09709821429 86.56673660714 Z"/></svg>